<?xml version="1.0" encoding="utf-8"?>
<!-- Generator: Adobe Illustrator 22.1.0, SVG Export Plug-In . SVG Version: 6.00 Build 0)  -->
<svg version="1.1" id="Layer_1" xmlns="http://www.w3.org/2000/svg" xmlns:xlink="http://www.w3.org/1999/xlink" x="0px" y="0px"
	 viewBox="0 0 424.9 463.2" style="enable-background:new 0 0 424.9 463.2;" xml:space="preserve">
<style type="text/css">
	.st0{fill:#A6ACAD;}
	.st1{fill:#E6E7E8;}
	.st2{fill:#C2C4C5;}
	.st3{fill:#D1D3D4;}
</style>
<path class="st0" d="M237.5,348.1c-3.8-28-5-35.3-8-53c-2.9-17.7-15.3-74.8-15.3-74.8h-4.4c0,0,8.4,63.1,10.7,79.3
	c2.3,16.2,26.1,141.4,26.1,141.4h2.3C248.9,441,241.3,376.1,237.5,348.1z"/>
<path class="st0" d="M183.7,348.1c3.8-28,5-35.3,8-53c2.9-17.7,15.3-74.8,15.3-74.8h4.4c0,0-8.4,63.1-10.7,79.3
	c-2.3,16.2-26.1,141.4-26.1,141.4h-2.3C172.3,441,179.9,376.1,183.7,348.1z"/>
<path class="st0" d="M237.5,348.1c-3.8-28-5-35.3-8-53c-2.9-17.7-15.3-74.8-15.3-74.8h-4.4c0,0,8.4,63.1,10.7,79.3
	c2.3,16.2,26.1,141.4,26.1,141.4h2.3C248.9,441,241.3,376.1,237.5,348.1z"/>
<path class="st0" d="M183.7,348.1c3.8-28,5-35.3,8-53c2.9-17.7,15.3-74.8,15.3-74.8h4.4c0,0-8.4,63.1-10.7,79.3
	c-2.3,16.2-26.1,141.4-26.1,141.4h-2.3C172.3,441,179.9,376.1,183.7,348.1z"/>
<rect x="13.6" y="458.1" class="st1" width="397.8" height="5.1"/>
<rect x="125.3" y="439.5" class="st2" width="173.5" height="14.7"/>
<polygon class="st3" points="73.6,435.3 351.3,435.3 351.3,437.4 298.4,443 124.9,443 73.6,437.4 "/>
<rect x="70.9" y="451.8" class="st3" width="283.1" height="6.4"/>
</svg>
