<?xml version="1.0" encoding="utf-8"?>
<!-- Generator: Adobe Illustrator 22.1.0, SVG Export Plug-In . SVG Version: 6.00 Build 0)  -->
<svg version="1.1" id="Layer_1" xmlns="http://www.w3.org/2000/svg" xmlns:xlink="http://www.w3.org/1999/xlink" x="0px" y="0px"
	 viewBox="0 0 424.9 463.2" style="enable-background:new 0 0 424.9 463.2;" xml:space="preserve">
<style type="text/css">
	.st0{fill:#C2C4C5;}
	.st1{fill:#BDBEC0;}
	.st2{fill:#FFFFFF;}
	.st3{fill:#D6D7D8;}
	.st4{fill:#009AA8;}
	.st5{fill:#808285;}
</style>
<g>
	<g>
		<rect x="212.4" y="75.4" class="st0" width="0.2" height="155.2"/>
	</g>
	<g>
		
			<rect x="204.3" y="75.8" transform="matrix(0.9945 -0.1045 0.1045 0.9945 -14.9103 22.1909)" class="st0" width="0.2" height="155.2"/>
	</g>
	<g>
		
			<rect x="196.2" y="77.1" transform="matrix(0.9781 -0.208 0.208 0.9781 -27.8872 44.2249)" class="st0" width="0.2" height="155.2"/>
	</g>
	<g>
		<polygon class="st0" points="212.4,230.6 164.4,83 164.6,83 212.5,230.6 		"/>
	</g>
	<g>
		<polygon class="st0" points="212.4,230.6 149.3,88.9 149.4,88.8 212.5,230.6 		"/>
	</g>
	<g>
		
			<rect x="173.6" y="85.8" transform="matrix(0.8661 -0.4999 0.4999 0.8661 -58.4174 108.7023)" class="st0" width="0.2" height="155.2"/>
	</g>
	<g>
		<polygon class="st0" points="212.4,230.6 121.2,105.1 121.3,105 212.5,230.5 		"/>
	</g>
	<g>
		<polygon class="st0" points="212.4,230.6 108.6,115.3 108.7,115.2 212.5,230.5 		"/>
	</g>
	<g>
		<polygon class="st0" points="212.4,230.7 97.1,126.8 97.2,126.7 212.5,230.5 		"/>
	</g>
	<g>
		<polygon class="st0" points="212.4,230.7 86.9,139.4 87,139.3 212.5,230.5 		"/>
	</g>
	<g>
		<polygon class="st0" points="212.4,230.7 78,153.1 78.1,152.9 212.5,230.5 		"/>
	</g>
	<g>
		
			<rect x="141.5" y="121.4" transform="matrix(0.4067 -0.9136 0.9136 0.4067 -97.8294 247.4204)" class="st0" width="0.2" height="155.2"/>
	</g>
	<g>
		<polygon class="st0" points="212.4,230.7 64.8,182.7 64.9,182.5 212.5,230.5 		"/>
	</g>
	<g>
		
			<rect x="136.5" y="136.9" transform="matrix(0.208 -0.9781 0.9781 0.208 -101.5933 303.4301)" class="st0" width="0.2" height="155.2"/>
	</g>
	<g>
		
			<rect x="135.2" y="144.9" transform="matrix(0.1045 -0.9945 0.9945 0.1045 -100.1109 333.786)" class="st0" width="0.2" height="155.2"/>
	</g>
	<g>
		<rect x="57.3" y="230.5" class="st0" width="155.2" height="0.2"/>
	</g>
	<g>
		
			<rect x="57.7" y="238.6" transform="matrix(0.9945 -0.1046 0.1046 0.9945 -24.2233 15.459)" class="st0" width="155.2" height="0.2"/>
	</g>
	<g>
		
			<rect x="59" y="246.6" transform="matrix(0.978 -0.2088 0.2088 0.978 -48.5101 33.9587)" class="st0" width="155.2" height="0.2"/>
	</g>
	<g>
		<polygon class="st0" points="64.9,278.6 64.8,278.5 212.4,230.5 212.5,230.7 		"/>
	</g>
	<g>
		
			<rect x="64" y="262.1" transform="matrix(0.9137 -0.4065 0.4065 0.9137 -94.3295 80.1766)" class="st0" width="155.2" height="0.2"/>
	</g>
	<g>
		<polygon class="st0" points="78.1,308.3 78,308.1 212.4,230.5 212.5,230.7 		"/>
	</g>
	<g>
		<polygon class="st0" points="87,321.9 86.9,321.8 212.4,230.5 212.5,230.7 		"/>
	</g>
	<g>
		<polygon class="st0" points="97.2,334.5 97.1,334.3 212.4,230.5 212.5,230.7 		"/>
	</g>
	<g>
		<polygon class="st0" points="108.7,346 108.6,345.9 212.4,230.5 212.5,230.6 		"/>
	</g>
	<g>
		
			<rect x="89.3" y="293.3" transform="matrix(0.5882 -0.8087 0.8087 0.5882 -168.5411 255.7261)" class="st0" width="155.2" height="0.2"/>
	</g>
	<g>
		
			<rect x="96.1" y="297.7" transform="matrix(0.4944 -0.8693 0.8693 0.4944 -171.0524 301.5419)" class="st0" width="155.2" height="0.2"/>
	</g>
	<g>
		<polygon class="st0" points="149.4,372.4 149.3,372.3 212.4,230.6 212.5,230.6 		"/>
	</g>
	<g>
		<polygon class="st0" points="164.6,378.2 164.4,378.2 212.4,230.6 212.5,230.6 		"/>
	</g>
	<g>
		
			<rect x="118.7" y="306.4" transform="matrix(0.2083 -0.9781 0.9781 0.2083 -144.3268 434.653)" class="st0" width="155.2" height="0.2"/>
	</g>
	<g>
		
			<rect x="126.8" y="307.7" transform="matrix(0.1016 -0.9948 0.9948 0.1016 -122.5713 479.8128)" class="st0" width="155.2" height="0.2"/>
	</g>
	<g>
		<rect x="212.4" y="230.6" class="st0" width="0.2" height="155.2"/>
	</g>
	<g>
		
			<rect x="220.5" y="230.2" transform="matrix(0.9945 -0.1045 0.1045 0.9945 -30.9518 24.7331)" class="st0" width="0.2" height="155.2"/>
	</g>
	<g>
		
			<rect x="228.5" y="228.9" transform="matrix(0.9781 -0.208 0.208 0.9781 -58.7511 54.2567)" class="st0" width="0.2" height="155.2"/>
	</g>
	<g>
		<polygon class="st0" points="260.4,378.2 212.4,230.6 212.5,230.6 260.5,378.2 		"/>
	</g>
	<g>
		<polygon class="st0" points="275.5,372.4 212.4,230.6 212.5,230.6 275.7,372.3 		"/>
	</g>
	<g>
		
			<rect x="251.2" y="220.2" transform="matrix(0.8661 -0.4999 0.4999 0.8661 -115.2265 165.4965)" class="st0" width="0.2" height="155.2"/>
	</g>
	<g>
		<polygon class="st0" points="303.6,356.2 212.4,230.6 212.5,230.5 303.8,356.1 		"/>
	</g>
	<g>
		<polygon class="st0" points="316.2,346 212.4,230.6 212.5,230.5 316.3,345.9 		"/>
	</g>
	<g>
		<polygon class="st0" points="327.7,334.5 212.4,230.7 212.5,230.5 327.8,334.3 		"/>
	</g>
	<g>
		<polygon class="st0" points="338,321.9 212.4,230.7 212.5,230.5 338.1,321.8 		"/>
	</g>
	<g>
		<polygon class="st0" points="346.8,308.3 212.4,230.7 212.5,230.5 346.9,308.1 		"/>
	</g>
	<g>
		
			<rect x="283.3" y="184.6" transform="matrix(0.4067 -0.9136 0.9136 0.4067 -71.3816 414.3842)" class="st0" width="0.2" height="155.2"/>
	</g>
	<g>
		<polygon class="st0" points="360,278.6 212.4,230.7 212.5,230.5 360.1,278.5 		"/>
	</g>
	<g>
		
			<rect x="288.3" y="169.1" transform="matrix(0.208 -0.9781 0.9781 0.208 -12.962 477.4514)" class="st0" width="0.2" height="155.2"/>
	</g>
	<g>
		<polygon class="st0" points="366.8,246.9 212.5,230.7 212.5,230.5 366.8,246.7 		"/>
	</g>
	<g>
		<rect x="212.5" y="230.5" class="st0" width="155.2" height="0.2"/>
	</g>
	<g>
		<polygon class="st0" points="212.5,230.7 212.5,230.5 366.8,214.3 366.8,214.5 		"/>
	</g>
	<g>
		
			<rect x="210.8" y="214.4" transform="matrix(0.978 -0.2088 0.2088 0.978 -38.4183 64.928)" class="st0" width="155.2" height="0.2"/>
	</g>
	<g>
		
			<rect x="208.7" y="206.5" transform="matrix(0.9503 -0.3113 0.3113 0.9503 -50.0927 99.3814)" class="st0" width="155.2" height="0.2"/>
	</g>
	<g>
		
			<rect x="205.8" y="198.9" transform="matrix(0.9137 -0.4064 0.4064 0.9137 -56.4331 132.3393)" class="st0" width="155.2" height="0.2"/>
	</g>
	<g>
		<polygon class="st0" points="212.5,230.7 212.4,230.5 346.8,152.9 346.9,153.1 		"/>
	</g>
	<g>
		<polygon class="st0" points="212.5,230.7 212.4,230.5 338,139.3 338.1,139.4 		"/>
	</g>
	<g>
		<polygon class="st0" points="212.5,230.7 212.4,230.5 327.7,126.7 327.8,126.8 		"/>
	</g>
	<g>
		<polygon class="st0" points="212.5,230.6 212.4,230.5 316.2,115.2 316.3,115.3 		"/>
	</g>
	<g>
		<polygon class="st0" points="212.5,230.6 212.4,230.5 303.6,105 303.8,105.1 		"/>
	</g>
	<g>
		
			<rect x="173.7" y="163.3" transform="matrix(0.5008 -0.8656 0.8656 0.5008 -15.9809 299.0507)" class="st0" width="155.2" height="0.2"/>
	</g>
	<g>
		<polygon class="st0" points="212.5,230.6 212.4,230.6 275.5,88.8 275.7,88.9 		"/>
	</g>
	<g>
		<polygon class="st0" points="212.5,230.6 212.4,230.6 260.4,83 260.5,83 		"/>
	</g>
	<g>
		
			<rect x="151" y="154.6" transform="matrix(0.2125 -0.9772 0.9772 0.2125 28.8645 345.2223)" class="st0" width="155.2" height="0.2"/>
	</g>
	<g>
		
			<rect x="143" y="153.3" transform="matrix(0.1046 -0.9945 0.9945 0.1046 44.9308 356.7347)" class="st0" width="155.2" height="0.2"/>
	</g>
	<polygon class="st1" points="213.7,37 211.2,37 201.3,56.7 203.8,57.9 212.4,40.7 221.2,58.1 223.6,56.9 	"/>
	<polygon class="st1" points="211.2,426.2 213.7,426.2 223.6,406.5 221.2,405.3 212.5,422.5 203.8,405.1 201.3,406.3 	"/>
	<g>
		<circle class="st2" cx="212.5" cy="429.9" r="14.2"/>
	</g>
	<g>
		<circle class="st2" cx="212.5" cy="33.3" r="14.2"/>
	</g>
	<polygon class="st1" points="17.8,230.4 17.8,232.9 37.5,242.8 38.8,240.3 21.6,231.6 39,222.9 37.7,220.4 	"/>
	<polygon class="st1" points="407.1,232.8 407.1,230.3 387.4,220.4 386.2,222.9 403.4,231.6 386,240.3 387.2,242.8 	"/>
	<g>
		<circle class="st2" cx="14.2" cy="231.6" r="14.2"/>
	</g>
	<g>
		<circle class="st2" cx="410.7" cy="231.6" r="14.2"/>
	</g>
	<polygon class="st1" points="163.3,43.3 160.9,43.9 156.4,65.5 159.1,66.1 163,47.2 176,61.8 178,59.9 	"/>
	<polygon class="st1" points="116.2,62.4 114.1,63.7 115.3,85.7 118.1,85.5 117,66.3 133.2,77 134.8,74.7 	"/>
	<polygon class="st1" points="75.7,93.1 74,94.9 80.9,115.8 83.5,114.9 77.5,96.6 95.9,102.8 96.8,100.1 	"/>
	<polygon class="st1" points="44.5,133.2 43.3,135.4 55.4,153.8 57.7,152.3 47.1,136.2 66.6,137.3 66.7,134.6 	"/>
	<polygon class="st1" points="24.8,180 24.2,182.4 40.6,197.1 42.4,195 28.1,182.2 47.1,178.3 46.6,175.6 	"/>
	<polygon class="st1" points="24.2,280.8 24.8,283.2 46.4,287.7 46.9,284.9 28.1,281 42.6,268.1 40.8,266 	"/>
	<polygon class="st1" points="43.3,327.8 44.5,330 66.6,328.7 66.4,326 47.1,327.1 57.9,310.8 55.6,309.3 	"/>
	<polygon class="st1" points="74,368.3 75.7,370.1 96.7,363.2 95.8,360.6 77.5,366.6 83.6,348.1 81,347.3 	"/>
	<polygon class="st1" points="114.1,399.5 116.2,400.8 134.7,388.7 133.2,386.4 117,396.9 118.2,377.5 115.4,377.3 	"/>
	<polygon class="st1" points="160.9,419.3 163.3,419.9 178,403.5 175.9,401.6 163.1,416 159.2,396.9 156.5,397.5 	"/>
	<polygon class="st1" points="261.7,419.9 264,419.3 268.5,397.7 265.8,397.1 261.9,416 249,401.4 246.9,403.3 	"/>
	<polygon class="st1" points="308.7,400.8 310.9,399.5 309.6,377.5 306.8,377.7 307.9,396.9 291.7,386.2 290.2,388.5 	"/>
	<polygon class="st1" points="349.2,370.1 351,368.3 344.1,347.4 341.4,348.3 347.5,366.6 329,360.4 328.1,363 	"/>
	<polygon class="st1" points="380.4,330 381.6,327.8 369.5,309.4 367.2,310.9 377.8,327 358.4,325.9 358.2,328.6 	"/>
	<polygon class="st1" points="400.1,283.2 400.8,280.8 384.3,266.1 382.5,268.2 396.9,281 377.8,284.9 378.4,287.6 	"/>
	<polygon class="st1" points="400.8,182.4 400.1,180 378.5,175.5 378,178.2 396.9,182.2 382.3,195.1 384.1,197.2 	"/>
	<polygon class="st1" points="381.6,135.3 380.4,133.2 358.4,134.5 358.5,137.2 377.8,136.1 367.1,152.4 369.4,153.9 	"/>
	<polygon class="st1" points="350.9,94.8 349.2,93.1 328.3,100 329.1,102.6 347.4,96.6 341.3,115.1 343.9,115.9 	"/>
	<polygon class="st1" points="310.8,63.7 308.7,62.4 290.3,74.5 291.8,76.8 307.9,66.3 306.7,85.7 309.5,85.9 	"/>
	<polygon class="st1" points="264,43.9 261.6,43.3 247,59.7 249,61.6 261.9,47.2 265.8,66.3 268.5,65.7 	"/>
	<g>
		<circle class="st2" cx="161.2" cy="40.1" r="14.2"/>
	</g>
	<g>
		<circle class="st2" cx="113.3" cy="59.9" r="14.2"/>
	</g>
	<g>
		<circle class="st2" cx="72.3" cy="91.4" r="14.2"/>
	</g>
	<g>
		<circle class="st2" cx="40.8" cy="132.5" r="14.2"/>
	</g>
	<g>
		<circle class="st2" cx="21" cy="180.3" r="14.2"/>
	</g>
	<g>
		<circle class="st2" cx="21" cy="282.9" r="14.2"/>
	</g>
	<g>
		<circle class="st2" cx="40.8" cy="330.7" r="14.2"/>
	</g>
	<g>
		<circle class="st2" cx="72.3" cy="371.8" r="14.2"/>
	</g>
	<g>
		<circle class="st2" cx="113.3" cy="403.3" r="14.2"/>
	</g>
	<g>
		<circle class="st2" cx="161.2" cy="423.1" r="14.2"/>
	</g>
	<g>
		<circle class="st2" cx="263.8" cy="423.1" r="14.2"/>
	</g>
	<g>
		<circle class="st2" cx="311.6" cy="403.3" r="14.2"/>
	</g>
	<g>
		<circle class="st2" cx="352.7" cy="371.8" r="14.2"/>
	</g>
	<g>
		<circle class="st2" cx="384.2" cy="330.7" r="14.2"/>
	</g>
	<g>
		<circle class="st2" cx="404" cy="282.9" r="14.2"/>
	</g>
	<g>
		<circle class="st2" cx="404" cy="180.3" r="14.2"/>
	</g>
	<g>
		<circle class="st2" cx="384.2" cy="132.5" r="14.2"/>
	</g>
	<g>
		<circle class="st2" cx="352.7" cy="91.4" r="14.2"/>
	</g>
	<g>
		<circle class="st2" cx="311.6" cy="59.9" r="14.2"/>
	</g>
	<g>
		<circle class="st2" cx="263.8" cy="40.1" r="14.2"/>
	</g>
	<g>
		<g>
			<polygon class="st1" points="56.3,240.6 38.3,231.8 38.3,229.5 56.3,220.3 57.4,222.5 41.7,230.6 57.4,238.3 			"/>
		</g>
		<g>
			<polygon class="st1" points="369.1,240.6 368,238.3 383.7,230.3 368,222.5 369.1,220.3 387.1,229.1 387.1,231.4 			"/>
		</g>
		<g>
			<polygon class="st1" points="56.1,224.2 39.1,213.5 39.3,211.3 58.2,204 59.1,206.3 42.6,212.7 57.4,222.1 			"/>
		</g>
		<g>
			<polygon class="st1" points="367.2,256.9 366.3,254.5 382.8,248.1 368,238.8 369.3,236.7 386.3,247.3 386.1,249.6 			"/>
		</g>
		<g>
			<polygon class="st1" points="57.6,207.9 41.8,195.5 42.3,193.3 61.8,188 62.4,190.4 45.4,195 59.1,205.9 			"/>
		</g>
		<g>
			<polygon class="st1" points="363.6,272.9 363,270.4 380,265.8 366.3,255 367.8,253 383.6,265.4 383.1,267.6 			"/>
		</g>
		<g>
			<polygon class="st1" points="60.8,191.8 46.4,177.8 47.1,175.7 67.1,172.4 67.5,174.9 50,177.8 62.6,190 			"/>
		</g>
		<g>
			<polygon class="st1" points="358.4,288.4 358,285.9 375.4,283.1 362.9,270.9 364.6,269.1 379,283 378.3,285.2 			"/>
		</g>
		<g>
			<polygon class="st1" points="65.7,176.1 52.8,160.7 53.7,158.7 73.9,157.5 74,160.1 56.4,161 67.6,174.5 			"/>
		</g>
		<g>
			<polygon class="st1" points="351.5,303.3 351.4,300.8 369,299.8 357.8,286.4 359.7,284.7 372.6,300.1 371.7,302.2 			"/>
		</g>
		<g>
			<polygon class="st1" points="72.1,161 61,144.4 62.1,142.4 82.3,143.4 82.2,146 64.5,145.1 74.2,159.6 			"/>
		</g>
		<g>
			<polygon class="st1" points="363.3,318.4 343.1,317.4 343.3,314.9 360.9,315.8 351.2,301.2 353.3,299.8 364.4,316.5 			"/>
		</g>
		<g>
			<polygon class="st1" points="80.2,146.7 70.8,129 72.1,127.2 92.1,130.3 91.7,132.8 74.2,130.1 82.4,145.6 			"/>
		</g>
		<g>
			<polygon class="st1" points="353.3,333.7 333.3,330.6 333.7,328.1 351.2,330.8 343,315.3 345.2,314.1 354.6,331.8 			"/>
		</g>
		<g>
			<polygon class="st1" points="89.6,133.3 82.2,114.7 83.7,113.1 103.2,118.2 102.6,120.7 85.4,116.1 92,132.4 			"/>
		</g>
		<g>
			<polygon class="st1" points="341.7,347.8 322.2,342.6 322.8,340.2 340,344.7 333.4,328.4 335.8,327.5 343.2,346.1 			"/>
		</g>
		<g>
			<polygon class="st1" points="100.5,121 95,101.7 96.6,100.2 115.5,107.4 114.6,109.8 98.1,103.5 102.9,120.3 			"/>
		</g>
		<g>
			<polygon class="st1" points="328.8,360.6 309.9,353.4 310.8,351.1 327.3,357.4 322.5,340.5 325,339.8 330.4,359.1 			"/>
		</g>
		<g>
			<polygon class="st1" points="112.5,109.9 109.1,90.1 110.9,88.8 128.9,97.9 127.8,100.2 112,92.2 115,109.5 			"/>
		</g>
		<g>
			<polygon class="st1" points="314.5,372.1 296.5,362.9 297.6,360.7 313.4,368.7 310.4,351.4 312.9,351 316.3,370.7 			"/>
		</g>
		<g>
			<polygon class="st1" points="125.6,100.1 124.3,80.1 126.2,78.9 143.2,89.9 141.9,92 127,82.4 128.2,99.9 			"/>
		</g>
		<g>
			<polygon class="st1" points="299.2,381.9 282.2,371 283.6,368.8 298.4,378.4 297.2,360.9 299.8,360.8 301.1,380.8 			"/>
		</g>
		<g>
			<polygon class="st1" points="142.3,91.8 139.7,91.7 140.5,71.7 142.5,70.7 158.3,83.4 156.7,85.4 142.9,74.3 			"/>
		</g>
		<g>
			<polygon class="st1" points="282.9,390.1 267.1,377.4 268.7,375.5 282.5,386.6 283.1,369.1 285.7,369.2 284.9,389.2 			"/>
		</g>
		<g>
			<polygon class="st1" points="157.1,85.2 154.6,84.8 157.5,65 159.6,64.3 173.9,78.5 172.2,80.3 159.6,67.8 			"/>
		</g>
		<g>
			<polygon class="st1" points="265.8,396.6 251.5,382.3 253.2,380.5 265.8,393 268.3,375.7 270.8,376 267.9,395.9 			"/>
		</g>
		<g>
			<polygon class="st1" points="172.6,80.2 170.2,79.6 175.1,60.1 177.3,59.6 190,75.3 188.1,76.9 176.9,63.2 			"/>
		</g>
		<g>
			<polygon class="st1" points="248.1,401.2 235.4,385.5 237.3,384 248.5,397.7 252.8,380.7 255.2,381.3 250.3,400.7 			"/>
		</g>
		<g>
			<polygon class="st1" points="188.5,76.8 186.2,75.9 193.1,57.1 195.3,56.9 206.4,73.8 204.2,75.2 194.6,60.3 			"/>
		</g>
		<g>
			<polygon class="st1" points="230.1,404 219,387.1 221.2,385.7 230.8,400.5 236.9,384 239.2,384.9 232.3,403.7 			"/>
		</g>
		<g>
			<polygon class="st1" points="220.5,75.1 212.4,59.4 204.7,75.1 202.4,74 211.3,56 213.5,56 222.8,74 			"/>
		</g>
		<g>
			<polygon class="st1" points="211.9,404.9 202.6,386.9 204.9,385.7 213,401.5 220.7,385.7 223,386.8 214.1,404.8 			"/>
		</g>
		<g>
			<polygon class="st1" points="236.7,76.8 230.3,60.3 221,75.1 218.8,73.8 229.5,56.8 231.7,57 239.1,75.9 			"/>
		</g>
		<g>
			<polygon class="st1" points="195.9,404 193.7,403.8 186.4,385 188.7,384 195.1,400.6 204.4,385.7 206.6,387.1 			"/>
		</g>
		<g>
			<polygon class="st1" points="252.6,80.1 248,63.1 237.2,76.9 235.2,75.3 247.6,59.5 249.8,60 255.1,79.5 			"/>
		</g>
		<g>
			<polygon class="st1" points="177.9,401.3 175.6,400.9 170.3,381.4 172.8,380.7 177.4,397.8 188.2,384 190.2,385.6 			"/>
		</g>
		<g>
			<polygon class="st1" points="268.1,85.1 265.3,67.7 253.1,80.3 251.3,78.5 265.2,64.1 267.4,64.8 270.6,84.7 			"/>
		</g>
		<g>
			<polygon class="st1" points="160.2,396.7 158,396.1 154.8,376.1 157.3,375.7 160.1,393.2 172.3,380.6 174.1,382.4 			"/>
		</g>
		<g>
			<polygon class="st1" points="283,91.7 282,74 268.5,85.3 266.9,83.4 282.3,70.5 284.4,71.4 285.5,91.6 			"/>
		</g>
		<g>
			<polygon class="st1" points="143.1,390.3 141,389.5 139.9,369.3 142.4,369.1 143.4,386.8 156.9,375.6 158.5,377.5 			"/>
		</g>
		<g>
			<polygon class="st1" points="299.6,100 297.1,99.8 298,82.1 283.4,91.9 282,89.8 298.6,78.7 300.6,79.8 			"/>
		</g>
		<g>
			<polygon class="st1" points="126.8,382.2 124.8,381.1 125.8,360.9 128.3,361 127.4,378.7 142,368.9 143.4,371 			"/>
		</g>
		<g>
			<polygon class="st1" points="312.8,109.7 310.3,109.4 313,91.9 297.5,100.1 296.3,97.8 314,88.5 315.9,89.8 			"/>
		</g>
		<g>
			<polygon class="st1" points="111.4,372.4 109.5,371.1 112.6,351.1 115.1,351.5 112.4,369 127.9,360.8 129.1,363 			"/>
		</g>
		<g>
			<polygon class="st1" points="324.8,120.9 322.4,120.2 326.9,103.1 310.6,109.6 309.7,107.3 328.3,99.8 330,101.3 			"/>
		</g>
		<g>
			<polygon class="st1" points="97.1,361 95.4,359.5 100.6,340 103,340.6 98.5,357.7 114.8,351.2 115.7,353.6 			"/>
		</g>
		<g>
			<polygon class="st1" points="335.7,133.2 333.3,132.3 339.6,115.7 322.7,120.5 322,118.1 341.3,112.6 342.8,114.3 			"/>
		</g>
		<g>
			<polygon class="st1" points="84.1,348.2 82.6,346.6 89.7,327.7 92.1,328.6 85.8,345.1 102.7,340.3 103.4,342.7 			"/>
		</g>
		<g>
			<polygon class="st1" points="345.2,146.6 342.9,145.4 350.9,129.6 333.6,132.6 333.2,130.1 352.9,126.7 354.3,128.5 			"/>
		</g>
		<g>
			<polygon class="st1" points="72.5,334.1 71.1,332.3 80.3,314.3 82.5,315.4 74.5,331.2 91.8,328.2 92.2,330.7 			"/>
		</g>
		<g>
			<polygon class="st1" points="353.2,160.9 351.1,159.5 360.7,144.6 343.2,145.8 343,143.3 363,141.9 364.1,143.9 			"/>
		</g>
		<g>
			<polygon class="st1" points="62.4,318.9 61.3,317 72.2,300 74.3,301.4 64.7,316.2 82.2,315 82.4,317.6 			"/>
		</g>
		<g>
			<polygon class="st1" points="359.7,175.9 357.7,174.3 368.8,160.5 351.3,159.9 351.4,157.4 371.4,158.1 372.4,160.2 			"/>
		</g>
		<g>
			<polygon class="st1" points="74,303.5 54,302.7 53,300.7 65.7,284.9 67.7,286.5 56.6,300.3 74.1,301 			"/>
		</g>
		<g>
			<polygon class="st1" points="364.6,191.6 362.8,189.8 375.3,177.2 357.9,174.8 358.3,172.3 378.1,175.1 378.8,177.2 			"/>
		</g>
		<g>
			<polygon class="st1" points="67.1,288.6 47.3,285.8 46.6,283.6 60.8,269.3 62.6,271.1 50.1,283.6 67.5,286.1 			"/>
		</g>
		<g>
			<polygon class="st1" points="367.8,207.7 366.2,205.7 379.9,194.5 362.9,190.2 363.5,187.8 383,192.7 383.5,194.9 			"/>
		</g>
		<g>
			<polygon class="st1" points="61.9,273.1 42.4,268.2 41.9,266 57.6,253.2 59.2,255.1 45.5,266.3 62.5,270.6 			"/>
		</g>
		<g>
			<polygon class="st1" points="369.3,224 368,221.9 382.8,212.2 366.3,206.2 367.2,203.8 386,210.7 386.3,212.9 			"/>
		</g>
		<g>
			<polygon class="st1" points="58.2,257.1 39.4,250.2 39.1,247.9 56.1,236.9 57.4,239 42.6,248.7 59.1,254.7 			"/>
		</g>
	</g>
	<path class="st3" d="M212.5,54.6c-97.2,0-176,78.8-176,176c0,97.2,78.8,176,176,176c97.2,0,176-78.8,176-176
		C388.4,133.4,309.6,54.6,212.5,54.6z M212.5,402.2c-94.8,0-171.6-76.8-171.6-171.6C40.9,135.8,117.7,59,212.5,59
		C307.2,59,384,135.8,384,230.6C384,325.3,307.2,402.2,212.5,402.2z"/>
	<g>
		<path class="st4" d="M212.5,388c-86.8,0-157.4-70.6-157.4-157.4S125.7,73.2,212.5,73.2c86.8,0,157.4,70.6,157.4,157.4
			S299.2,388,212.5,388z M212.5,75.2c-85.7,0-155.4,69.7-155.4,155.4S126.8,386,212.5,386c85.7,0,155.4-69.7,155.4-155.4
			S298.2,75.2,212.5,75.2z"/>
		<path class="st3" d="M212.5,72.2c-87.5,0-158.4,70.9-158.4,158.4C54.1,318.1,125,389,212.5,389c87.5,0,158.4-70.9,158.4-158.4
			C370.8,143.1,299.9,72.2,212.5,72.2L212.5,72.2z M212.5,385c-85.3,0-154.4-69.1-154.4-154.4c0-85.3,69.1-154.4,154.4-154.4
			c85.3,0,154.4,69.1,154.4,154.4C366.9,315.9,297.7,385,212.5,385L212.5,385z"/>
	</g>
	<g>
		<path class="st3" d="M60.2,238.7c0,1-0.8,1.8-1.8,1.8c-1,0-1.8-0.8-1.8-1.8c0-1,0.8-1.8,1.8-1.8C59.4,236.9,60.2,237.7,60.2,238.7
			z"/>
		<path class="st3" d="M368.6,222.2c0,1-0.8,1.8-1.8,1.8c-1,0-1.8-0.8-1.8-1.8c0-1,0.8-1.8,1.8-1.8
			C367.8,220.4,368.6,221.2,368.6,222.2z"/>
		<path class="st3" d="M61.9,254.6c0.1,1-0.6,1.9-1.6,2c-1,0.1-1.9-0.6-2-1.6c-0.1-1,0.6-1.9,1.6-2
			C60.9,252.8,61.8,253.6,61.9,254.6z"/>
		<path class="st3" d="M366.9,206c0.1,1-0.6,1.9-1.6,2c-1,0.1-1.9-0.6-2-1.6c-0.1-1,0.6-1.9,1.6-2C365.9,204.2,366.8,205,366.9,206z
			"/>
		<path class="st3" d="M65.2,270.2c0.2,1-0.4,2-1.4,2.2c-1,0.2-2-0.4-2.2-1.4c-0.2-1,0.4-2,1.4-2.2C64.1,268.5,65,269.2,65.2,270.2z
			"/>
		<path class="st3" d="M363.5,190c0.2,1-0.4,2-1.4,2.2c-1,0.2-2-0.4-2.2-1.4c-0.2-1,0.4-2,1.4-2.2C362.3,188.4,363.3,189,363.5,190z
			"/>
		<path class="st3" d="M70.2,285.3c0.3,1-0.2,2-1.2,2.3c-1,0.3-2-0.2-2.3-1.2c-0.3-1,0.2-2,1.2-2.3
			C68.8,283.8,69.9,284.4,70.2,285.3z"/>
		<path class="st3" d="M358.4,174.5c0.3,1-0.2,2-1.2,2.3c-1,0.3-2-0.2-2.3-1.2c-0.3-1,0.2-2,1.2-2.3
			C357.1,173,358.1,173.5,358.4,174.5z"/>
		<path class="st3" d="M76.7,299.9c0.4,0.9,0,2-0.9,2.4c-0.9,0.4-2,0-2.4-0.9c-0.4-0.9,0-2,0.9-2.4C75.2,298.6,76.3,299,76.7,299.9z
			"/>
		<path class="st3" d="M351.8,159.5c0.4,0.9,0,2-0.9,2.4c-0.9,0.4-2,0-2.4-0.9c-0.4-0.9,0-2,0.9-2.4
			C350.3,158.2,351.4,158.6,351.8,159.5z"/>
		<path class="st3" d="M84.7,313.7c0.5,0.9,0.2,2-0.7,2.5c-0.9,0.5-2,0.2-2.5-0.7c-0.5-0.9-0.2-2,0.7-2.5
			C83.1,312.5,84.2,312.8,84.7,313.7z"/>
		<path class="st3" d="M343.6,145.4c0.5,0.9,0.2,2-0.7,2.5c-0.9,0.5-2,0.2-2.5-0.7c-0.5-0.9-0.2-2,0.7-2.5
			C342,144.2,343.1,144.5,343.6,145.4z"/>
		<path class="st3" d="M94.1,326.6c0.6,0.8,0.4,2-0.4,2.6c-0.8,0.6-2,0.4-2.6-0.4c-0.6-0.8-0.4-2,0.4-2.6
			C92.4,325.6,93.5,325.8,94.1,326.6z"/>
		<path class="st3" d="M334,132.2c0.6,0.8,0.4,2-0.4,2.6c-0.8,0.6-2,0.4-2.6-0.4c-0.6-0.8-0.4-2,0.4-2.6
			C332.2,131.2,333.4,131.3,334,132.2z"/>
		<path class="st3" d="M104.8,338.5c0.7,0.8,0.6,1.9-0.1,2.6c-0.8,0.7-1.9,0.6-2.6-0.1c-0.7-0.8-0.6-1.9,0.1-2.6
			C102.9,337.7,104.1,337.7,104.8,338.5z"/>
		<path class="st3" d="M323.1,120c0.7,0.8,0.6,1.9-0.1,2.6c-0.8,0.7-1.9,0.6-2.6-0.1c-0.7-0.8-0.6-1.9,0.1-2.6
			C321.2,119.2,322.4,119.3,323.1,120z"/>
		<path class="st3" d="M116.7,349.1c0.8,0.7,0.8,1.8,0.1,2.6c-0.7,0.8-1.9,0.8-2.6,0.1c-0.8-0.7-0.8-1.8-0.1-2.6
			C114.7,348.5,115.9,348.5,116.7,349.1z"/>
		<path class="st3" d="M310.9,109.1c0.8,0.7,0.8,1.8,0.1,2.6c-0.7,0.8-1.8,0.8-2.6,0.1c-0.8-0.7-0.8-1.8-0.1-2.6
			C309,108.5,310.2,108.4,310.9,109.1z"/>
		<path class="st3" d="M129.6,358.5c0.8,0.6,1,1.8,0.4,2.6c-0.6,0.8-1.8,1-2.6,0.4c-0.8-0.6-1-1.8-0.4-2.6
			C127.6,358.1,128.8,357.9,129.6,358.5z"/>
		<path class="st3" d="M297.7,99.5c0.8,0.6,1,1.8,0.4,2.6c-0.6,0.8-1.8,1-2.6,0.4c-0.8-0.6-1-1.8-0.4-2.6
			C295.7,99,296.9,98.9,297.7,99.5z"/>
		<path class="st3" d="M143.4,366.5c0.9,0.5,1.2,1.6,0.7,2.5c-0.5,0.9-1.6,1.2-2.5,0.7c-0.9-0.5-1.2-1.6-0.7-2.5
			C141.4,366.3,142.5,366,143.4,366.5z"/>
		<path class="st3" d="M283.5,91.3c0.9,0.5,1.2,1.6,0.7,2.5c-0.5,0.9-1.6,1.2-2.5,0.7c-0.9-0.5-1.2-1.6-0.7-2.5
			C281.5,91.1,282.7,90.8,283.5,91.3z"/>
		<path class="st3" d="M158,372.9c0.9,0.4,1.3,1.5,0.9,2.4c-0.4,0.9-1.5,1.4-2.4,0.9c-0.9-0.4-1.3-1.5-0.9-2.4
			C156,373,157.1,372.5,158,372.9z"/>
		<path class="st3" d="M268.6,84.6c0.9,0.4,1.4,1.5,0.9,2.4c-0.4,0.9-1.5,1.3-2.4,0.9c-0.9-0.4-1.4-1.5-0.9-2.4
			C266.6,84.6,267.7,84.2,268.6,84.6z"/>
		<path class="st3" d="M173.2,377.9c1,0.3,1.5,1.4,1.2,2.3c-0.3,1-1.4,1.5-2.3,1.2c-1-0.3-1.5-1.4-1.2-2.3
			C171.2,378.1,172.2,377.6,173.2,377.9z"/>
		<path class="st3" d="M253.1,79.6c1,0.3,1.5,1.4,1.2,2.3c-0.3,1-1.4,1.5-2.3,1.2c-1-0.3-1.5-1.4-1.2-2.3
			C251.1,79.8,252.1,79.3,253.1,79.6z"/>
		<path class="st3" d="M188.8,381.2c1,0.2,1.6,1.2,1.4,2.2c-0.2,1-1.2,1.6-2.2,1.4c-1-0.2-1.6-1.2-1.4-2.2
			C186.8,381.6,187.8,381,188.8,381.2z"/>
		<path class="st3" d="M237.1,76.2c1,0.2,1.6,1.2,1.4,2.2c-0.2,1-1.2,1.6-2.2,1.4c-1-0.2-1.6-1.2-1.4-2.2
			C235.1,76.6,236.1,76,237.1,76.2z"/>
		<path class="st3" d="M204.7,382.8c1,0.1,1.7,1,1.6,2c-0.1,1-1,1.8-2,1.6c-1-0.1-1.7-1-1.6-2C202.7,383.5,203.6,382.7,204.7,382.8z
			"/>
		<path class="st3" d="M220.8,74.4c1,0.1,1.7,1,1.6,2c-0.1,1-1,1.7-2,1.6c-1-0.1-1.7-1-1.6-2C218.9,75.1,219.8,74.3,220.8,74.4z"/>
		<path class="st3" d="M220.6,382.8c1,0,1.8,0.8,1.8,1.8c0,1-0.8,1.8-1.9,1.8c-1,0-1.8-0.8-1.8-1.8
			C218.8,383.7,219.6,382.8,220.6,382.8z"/>
		<path class="st3" d="M204.5,74.4c1,0,1.8,0.8,1.8,1.8c0,1-0.8,1.8-1.8,1.8c-1,0-1.8-0.8-1.8-1.8C202.7,75.3,203.5,74.4,204.5,74.4
			z"/>
		<path class="st3" d="M236.5,381.1c1-0.1,1.9,0.6,2,1.6c0.1,1-0.6,1.9-1.6,2c-1,0.1-1.9-0.6-2-1.6
			C234.7,382.2,235.5,381.3,236.5,381.1z"/>
		<path class="st3" d="M188.2,76.1c1-0.1,1.9,0.6,2,1.6c0.1,1-0.6,1.9-1.6,2c-1,0.1-1.9-0.6-2-1.6C186.5,77.1,187.2,76.2,188.2,76.1
			z"/>
		<path class="st3" d="M252.1,377.8c1-0.2,2,0.4,2.2,1.4c0.2,1-0.4,2-1.4,2.2c-1,0.2-2-0.4-2.2-1.4C250.5,379,251.1,378,252.1,377.8
			z"/>
		<path class="st3" d="M172.3,79.5c1-0.2,2,0.4,2.2,1.4c0.2,1-0.4,2-1.4,2.2c-1,0.2-2-0.4-2.2-1.4C170.6,80.7,171.3,79.7,172.3,79.5
			z"/>
		<path class="st3" d="M267.3,372.9c1-0.3,2,0.2,2.3,1.2c0.3,1-0.2,2-1.2,2.3c-1,0.3-2-0.2-2.3-1.2
			C265.8,374.2,266.3,373.2,267.3,372.9z"/>
		<path class="st3" d="M156.7,84.5c1-0.3,2,0.2,2.3,1.2c0.3,1-0.2,2-1.2,2.3c-1,0.3-2-0.2-2.3-1.2C155.2,85.9,155.7,84.9,156.7,84.5
			z"/>
		<path class="st3" d="M281.8,366.4c0.9-0.4,2,0,2.4,0.9c0.4,0.9,0,2-0.9,2.4c-0.9,0.4-2,0-2.4-0.9
			C280.5,367.9,280.9,366.8,281.8,366.4z"/>
		<path class="st3" d="M141.8,91.2c0.9-0.4,2,0,2.4,0.9c0.4,0.9,0,2-0.9,2.4c-0.9,0.4-2,0-2.4-0.9C140.4,92.7,140.8,91.6,141.8,91.2
			z"/>
		<path class="st3" d="M295.7,358.4c0.9-0.5,2-0.2,2.5,0.7c0.5,0.9,0.2,2-0.7,2.5c-0.9,0.5-2,0.2-2.5-0.7
			C294.5,360.1,294.8,358.9,295.7,358.4z"/>
		<path class="st3" d="M127.6,99.3c0.9-0.5,2-0.2,2.5,0.7c0.5,0.9,0.2,2-0.7,2.5c-0.9,0.5-2,0.2-2.5-0.7
			C126.4,101,126.7,99.8,127.6,99.3z"/>
		<path class="st3" d="M308.6,349c0.8-0.6,2-0.4,2.6,0.4c0.6,0.8,0.4,2-0.4,2.6c-0.8,0.6-2,0.4-2.6-0.4
			C307.6,350.8,307.7,349.6,308.6,349z"/>
		<path class="st3" d="M114.4,108.9c0.8-0.6,2-0.4,2.6,0.4c0.6,0.8,0.4,2-0.4,2.6c-0.8,0.6-2,0.4-2.6-0.4
			C113.4,110.7,113.5,109.5,114.4,108.9z"/>
		<path class="st3" d="M320.4,338.4c0.8-0.7,1.9-0.6,2.6,0.1c0.7,0.8,0.6,1.9-0.1,2.6c-0.8,0.7-1.9,0.6-2.6-0.1
			C319.6,340.2,319.7,339,320.4,338.4z"/>
		<path class="st3" d="M102.2,119.8c0.8-0.7,1.9-0.6,2.6,0.1c0.7,0.8,0.6,1.9-0.1,2.6c-0.8,0.7-1.9,0.6-2.6-0.1
			C101.4,121.7,101.5,120.5,102.2,119.8z"/>
		<path class="st3" d="M331.1,326.5c0.7-0.8,1.9-0.8,2.6-0.1c0.8,0.7,0.8,1.9,0.1,2.6c-0.7,0.8-1.8,0.8-2.6,0.1
			C330.5,328.4,330.4,327.3,331.1,326.5z"/>
		<path class="st3" d="M91.3,132c0.7-0.8,1.8-0.8,2.6-0.1c0.8,0.7,0.8,1.9,0.1,2.6c-0.7,0.8-1.9,0.8-2.6,0.1
			C90.6,133.9,90.6,132.7,91.3,132z"/>
		<path class="st3" d="M340.5,313.6c0.6-0.8,1.8-1,2.6-0.4c0.8,0.6,1,1.8,0.4,2.6c-0.6,0.8-1.8,1-2.6,0.4
			C340.1,315.6,339.9,314.4,340.5,313.6z"/>
		<path class="st3" d="M81.6,145.2c0.6-0.8,1.8-1,2.6-0.4c0.8,0.6,1,1.8,0.4,2.6c-0.6,0.8-1.8,1-2.6,0.4
			C81.2,147.2,81,146,81.6,145.2z"/>
		<path class="st3" d="M348.5,299.8c0.5-0.9,1.6-1.2,2.5-0.7c0.9,0.5,1.2,1.6,0.7,2.5c-0.5,0.9-1.6,1.2-2.5,0.7
			C348.3,301.8,348,300.6,348.5,299.8z"/>
		<path class="st3" d="M73.4,159.3c0.5-0.9,1.6-1.2,2.5-0.7c0.9,0.5,1.2,1.6,0.7,2.5c-0.5,0.9-1.6,1.2-2.5,0.7
			C73.2,161.3,72.9,160.2,73.4,159.3z"/>
		<path class="st3" d="M355,285.2c0.4-0.9,1.5-1.3,2.4-0.9c0.9,0.4,1.3,1.5,0.9,2.4c-0.4,0.9-1.5,1.3-2.4,0.9
			C355,287.2,354.6,286.1,355,285.2z"/>
		<path class="st3" d="M66.8,174.3c0.4-0.9,1.5-1.3,2.4-0.9c0.9,0.4,1.3,1.5,0.9,2.4c-0.4,0.9-1.5,1.3-2.4,0.9
			C66.8,176.3,66.4,175.2,66.8,174.3z"/>
		<path class="st3" d="M359.9,270c0.3-1,1.4-1.5,2.3-1.2c1,0.3,1.5,1.4,1.2,2.3c-0.3,1-1.4,1.5-2.3,1.2
			C360.1,272,359.6,271,359.9,270z"/>
		<path class="st3" d="M61.7,189.8c0.3-1,1.4-1.5,2.3-1.2c1,0.3,1.5,1.4,1.2,2.3c-0.3,1-1.4,1.5-2.3,1.2
			C61.9,191.8,61.4,190.8,61.7,189.8z"/>
		<path class="st3" d="M363.2,254.4c0.2-1,1.2-1.6,2.2-1.4c1,0.2,1.6,1.2,1.4,2.2c-0.2,1-1.2,1.6-2.2,1.4
			C363.6,256.4,363,255.4,363.2,254.4z"/>
		<path class="st3" d="M58.3,205.8c0.2-1,1.2-1.6,2.2-1.4c1,0.2,1.6,1.2,1.4,2.2c-0.2,1-1.2,1.6-2.2,1.4
			C58.7,207.7,58.1,206.8,58.3,205.8z"/>
		<path class="st3" d="M364.9,238.5c0.1-1,1-1.7,2-1.6c1,0.1,1.7,1,1.6,2c-0.1,1-1,1.7-2,1.6C365.5,240.5,364.8,239.6,364.9,238.5z"
			/>
		<path class="st3" d="M56.5,222c0.1-1,1-1.7,2-1.6c1,0.1,1.7,1,1.6,2c-0.1,1-1,1.7-2,1.6C57.2,223.9,56.4,223,56.5,222z"/>
	</g>
	<g>
		<path class="st4" d="M212.5,388c-86.8,0-157.4-70.6-157.4-157.4S125.7,73.2,212.5,73.2c86.8,0,157.4,70.6,157.4,157.4
			S299.2,388,212.5,388z M212.5,75.2c-85.7,0-155.4,69.7-155.4,155.4S126.8,386,212.5,386c85.7,0,155.4-69.7,155.4-155.4
			S298.2,75.2,212.5,75.2z"/>
		<path class="st3" d="M212.5,72.2c-87.5,0-158.4,70.9-158.4,158.4C54.1,318.1,125,389,212.5,389c87.5,0,158.4-70.9,158.4-158.4
			C370.8,143.1,299.9,72.2,212.5,72.2L212.5,72.2z M212.5,385c-85.3,0-154.4-69.1-154.4-154.4c0-85.3,69.1-154.4,154.4-154.4
			c85.3,0,154.4,69.1,154.4,154.4C366.9,315.9,297.7,385,212.5,385L212.5,385z"/>
	</g>
</g>
<g>
	<path class="st0" d="M221.2,231.6c0,4.8-3.9,8.8-8.8,8.8c-4.8,0-8.8-3.9-8.8-8.8c0-4.8,3.9-8.8,8.8-8.8
		C217.3,222.8,221.2,226.8,221.2,231.6z"/>
	<path class="st0" d="M220.9,231.6c0,4.6-3.8,8.4-8.4,8.4c-4.6,0-8.4-3.8-8.4-8.4c0-4.6,3.8-8.4,8.4-8.4
		C217.1,223.2,220.9,227,220.9,231.6z"/>
	<path class="st5" d="M212.5,240.8c-5.1,0-9.2-4.1-9.2-9.2c0-5.1,4.1-9.2,9.2-9.2c5.1,0,9.2,4.1,9.2,9.2
		C221.7,236.7,217.6,240.8,212.5,240.8z M212.5,223.3c-4.6,0-8.3,3.7-8.3,8.3c0,4.6,3.7,8.3,8.3,8.3c4.6,0,8.3-3.7,8.3-8.3
		C220.7,227,217,223.3,212.5,223.3z"/>
</g>
</svg>
